HIERARCHY
ROOT Hips
{
    OFFSET 0.000000 0.000000 0.000000
    CHANNELS 6 Xposition Yposition Zposition Zrotation Xrotation Yrotation
    JOINT Spine
    {
        OFFSET -0.000000 14.517291 0.000000
        CHANNELS 3 Zrotation Xrotation Yrotation
        JOINT Spine1
        {
            OFFSET -0.000000 37.558300 0.000000
            CHANNELS 3 Zrotation Xrotation Yrotation
            JOINT Neck
            {
                OFFSET -0.000000 37.404057 3.400369
                CHANNELS 3 Zrotation Xrotation Yrotation
                JOINT Head
                {
                    OFFSET -0.000000 24.785618 -3.540803
                    CHANNELS 3 Zrotation Xrotation Yrotation
                    End Site
                    {
                        OFFSET -0.000000 35.408028 0.000000
                    }
                }
            }
            JOINT LeftShoulder
            {
                OFFSET 6.992933 33.973492 -0.192664
                CHANNELS 3 Zrotation Xrotation Yrotation
                JOINT LeftArm
                {
                    OFFSET 21.527611 0.000000 0.000000
                    CHANNELS 3 Zrotation Xrotation Yrotation
                    JOINT LeftForeArm
                    {
                        OFFSET 56.353916 0.000000 0.000000
                        CHANNELS 3 Zrotation Xrotation Yrotation
                        JOINT LeftHand
                        {
                            OFFSET 47.774071 0.000000 0.000000
                            CHANNELS 3 Zrotation Xrotation Yrotation
                            End Site
                            {
                                OFFSET 26.556021 0.000000 0.000000
                            }
                        }
                    }
                }
            }
            JOINT RightShoulder
            {
                OFFSET -7.065357 33.973492 -0.192664
                CHANNELS 3 Zrotation Xrotation Yrotation
                JOINT RightArm
                {
                    OFFSET -21.527611 0.000000 0.000000
                    CHANNELS 3 Zrotation Xrotation Yrotation
                    JOINT RightForeArm
                    {
                        OFFSET -56.353916 0.000000 0.000000
                        CHANNELS 3 Zrotation Xrotation Yrotation
                        JOINT RightHand
                        {
                            OFFSET -47.774071 0.000000 0.000000
                            CHANNELS 3 Zrotation Xrotation Yrotation
                            End Site
                            {
                                OFFSET -26.556021 0.000000 0.000000
                            }
                        }
                    }
                }
            }
        }
    }
    JOINT LeftUpLeg
    {
        OFFSET 17.704014 0.000000 0.000000
        CHANNELS 3 Zrotation Xrotation Yrotation
        JOINT LeftLeg
        {
            OFFSET -0.000000 -81.181816 0.000000
            CHANNELS 3 Zrotation Xrotation Yrotation
            JOINT LeftFoot
            {
                OFFSET -0.000000 -62.821102 0.000000
                CHANNELS 3 Zrotation Xrotation Yrotation
                JOINT LeftToeBase
                {
                    OFFSET -0.000000 -11.507608 26.556021
                    CHANNELS 3 Zrotation Xrotation Yrotation
                    End Site
                    {
                        OFFSET -0.000000 0.000000 7.081605
                    }
                }
            }
        }
    }
    JOINT RightUpLeg
    {
        OFFSET -17.704014 0.000000 0.000000
        CHANNELS 3 Zrotation Xrotation Yrotation
        JOINT RightLeg
        {
            OFFSET -0.000000 -81.181816 0.000000
            CHANNELS 3 Zrotation Xrotation Yrotation
            JOINT RightFoot
            {
                OFFSET -0.000000 -62.821102 0.000000
                CHANNELS 3 Zrotation Xrotation Yrotation
                JOINT RightToeBase
                {
                    OFFSET -0.000000 -11.507608 26.556021
                    CHANNELS 3 Zrotation Xrotation Yrotation
                    End Site
                    {
                        OFFSET -0.000000 0.000000 7.081605
                    }
                }
            }
        }
    }
}
MOTION
Frames:    12
Frame Time:    0.008333
30.662287    143.740768    52.774750    5.171201    2.703272    -66.407043    -0.107052    4.573796    -2.186010    -0.528882    -3.415831    -0.746280    21.846117    12.665509    21.964130    -18.868357    0.389018    19.632458    15.337349    -5.886209    -18.935417    -7.204836    -25.785583    -21.404875    47.392353    -30.931921    -27.836035    4.023431    -20.823286    -34.653610    -6.257329    -2.646485    -6.942946    33.792835    -28.091036    46.960964    10.970955    -31.962524    110.599426    29.138746    -36.691467    37.944187    38.786469    -23.323017    33.864063    -37.680176    47.494026    12.150958    3.486140    -17.419737    44.960331    0.000000    0.000000    0.000000    -32.731319    -17.471514    -16.117485    3.280516    33.125378    -5.213042    20.725239    -7.255409    7.237455    0.000000    0.000000    0.000000    
30.646414    143.722885    52.760910    5.148984    2.702268    -66.366379    -0.100595    4.569671    -2.186536    -0.536740    -3.410556    -0.746515    21.822962    12.663746    21.957083    -18.830671    0.394159    19.631330    15.323532    -5.870641    -18.938070    -7.193223    -25.685400    -21.365320    47.465343    -30.956890    -27.695286    3.928256    -20.860283    -34.536575    -6.268476    -2.639673    -6.926640    33.810890    -28.105259    46.994495    10.965273    -31.958477    110.575859    29.096346    -36.695381    37.911163    38.804863    -23.315054    33.868309    -37.701527    47.503460    12.142361    3.507653    -17.402853    44.939465    0.000000    0.000000    0.000000    -32.723904    -17.449097    -16.101179    3.284400    33.180233    -5.241020    20.742731    -7.305686    7.252781    0.000000    0.000000    0.000000    
30.636478    143.703796    52.749718    5.144907    2.698608    -66.325470    -0.108233    4.540533    -2.186122    -0.535099    -3.381464    -0.746305    21.776129    12.639790    21.951721    -18.773491    0.395232    19.630131    15.309533    -5.868792    -18.931385    -7.189921    -25.607769    -21.342354    47.490528    -30.966312    -27.591141    3.929601    -20.905523    -34.413162    -6.297108    -2.639812    -6.931293    33.860176    -28.123070    47.056980    10.969446    -31.935143    110.557365    29.066805    -36.688675    37.885445    38.815323    -23.321209    33.868587    -37.735310    47.507401    12.122318    3.514299    -17.409388    44.943394    0.000000    0.000000    0.000000    -32.735786    -17.438599    -16.086775    3.296146    33.236439    -5.215906    20.701284    -7.395769    7.240622    0.000000    0.000000    0.000000    
30.623356    143.685883    52.738476    5.130871    2.687413    -66.285141    -0.123756    4.531546    -2.184312    -0.531740    -3.368245    -0.745795    21.723555    12.601336    21.946041    -18.686398    0.418001    19.633333    15.291601    -5.859575    -18.939236    -7.186333    -25.578997    -21.306404    47.435959    -30.971706    -27.572277    3.953923    -20.937996    -34.303864    -6.315437    -2.640306    -6.924985    33.859280    -28.105568    47.084972    10.957833    -31.964874    110.552483    29.021727    -36.722214    37.855629    38.818062    -23.315763    33.869377    -37.760925    47.509888    12.116042    3.535206    -17.403915    44.936447    0.000000    0.000000    0.000000    -32.745792    -17.422195    -16.056139    3.324717    33.294289    -5.209250    20.727282    -7.458035    7.149951    0.000000    0.000000    0.000000    
30.613310    143.667038    52.726734    5.121799    2.679830    -66.244751    -0.129745    4.507559    -2.183995    -0.545608    -3.331026    -0.745958    21.682663    12.555726    21.949472    -18.622122    0.427940    19.639133    15.293576    -5.864957    -18.928335    -7.207709    -25.562527    -21.296591    47.352253    -30.992952    -27.582544    3.946347    -20.974792    -34.225052    -6.322714    -2.639683    -6.940753    33.878689    -28.093990    47.148499    10.943592    -31.980230    110.544083    28.980923    -36.733902    37.838058    38.824867    -23.315290    33.858784    -37.799305    47.509716    12.086411    3.573809    -17.391306    44.950245    0.000000    0.000000    0.000000    -32.755116    -17.412329    -16.057653    3.325026    33.351383    -5.240528    20.748835    -7.497766    7.175841    0.000000    0.000000    0.000000    
30.582613    143.647034    52.695847    5.101598    2.670638    -66.195663    -0.173442    4.490267    -2.191307    -0.514892    -3.293339    -0.747878    21.660936    12.520315    21.948645    -18.601658    0.447924    19.637672    15.290061    -5.863974    -18.924105    -7.220942    -25.554996    -21.265694    47.243698    -31.012060    -27.629110    3.900525    -20.991013    -34.195873    -6.337310    -2.635247    -6.957037    33.874367    -28.038443    47.197422    10.910298    -32.053787    110.548759    28.994980    -36.753937    37.866833    38.838402    -23.302946    33.871506    -37.805626    47.512726    12.055604    3.580481    -17.375002    44.921627    0.000000    0.000000    0.000000    -32.745380    -17.380886    -16.046038    3.306928    33.409935    -5.258019    20.720171    -7.595664    7.234852    0.000000    0.000000    0.000000    
30.575020    143.629211    52.685188    5.090258    2.661063    -66.153839    -0.187831    4.484952    -2.201707    -0.502873    -3.282012    -0.751143    21.621485    12.488630    21.953281    -18.578060    0.474598    19.644928    15.262067    -5.859046    -18.914202    -7.226975    -25.496325    -21.242085    47.191677    -31.028046    -27.625523    3.858275    -21.011860    -34.186115    -6.382659    -2.638306    -6.948229    33.903641    -28.025034    47.224960    10.918395    -32.039658    110.584526    28.973164    -36.764961    37.868416    38.840271    -23.302689    33.875393    -37.822414    47.510323    12.053097    3.597317    -17.360001    44.906223    0.000000    0.000000    0.000000    -32.751587    -17.362411    -16.050577    3.296985    33.454842    -5.242195    20.789539    -7.632504    7.200321    0.000000    0.000000    0.000000    
30.592245    143.616486    52.699669    5.090538    2.652951    -66.117172    -0.148448    4.487947    -2.209999    -0.554317    -3.294812    -0.754931    21.581982    12.467928    21.947172    -18.553267    0.477714    19.639509    15.236670    -5.835244    -18.893116    -7.246010    -25.459930    -21.252281    47.147308    -31.021318    -27.618116    3.808067    -21.005022    -34.167404    -6.405749    -2.629255    -6.955126    33.915504    -27.993998    47.272240    10.924665    -32.046803    110.613144    28.980961    -36.777164    37.897617    38.823238    -23.324383    33.889847    -37.820992    47.529163    12.061598    3.604105    -17.375124    44.877254    0.000000    0.000000    0.000000    -32.782269    -17.352772    -16.047560    3.328972    33.481094    -5.308143    20.787058    -7.632666    7.214165    0.000000    0.000000    0.000000    
30.590565    143.600113    52.694267    5.086679    2.645517    -66.077354    -0.154106    4.474196    -2.219346    -0.564730    -3.289975    -0.758465    21.559586    12.473900    21.941328    -18.547915    0.465021    19.634037    15.216508    -5.814508    -18.889761    -7.265512    -25.431904    -21.245480    47.088062    -31.023212    -27.641582    3.733224    -20.991669    -34.165962    -6.417447    -2.616866    -6.943856    33.920250    -27.983608    47.293934    10.924126    -32.043156    110.640160    28.990126    -36.773521    37.913136    38.820789    -23.338799    33.905094    -37.824741    47.551418    12.042137    3.632445    -17.365622    44.858139    0.000000    0.000000    0.000000    -32.794823    -17.339243    -16.091110    3.300339    33.521133    -5.265269    20.820282    -7.665418    7.200566    0.000000    0.000000    0.000000    
30.560928    143.585236    52.669739    5.064425    2.642069    -66.042282    -0.196103    4.455495    -2.219669    -0.516660    -3.260136    -0.757514    21.518927    12.445868    21.931667    -18.529675    0.489305    19.625931    15.179708    -5.802107    -18.899963    -7.285595    -25.436947    -21.230892    47.012444    -30.997810    -27.694859    3.642510    -20.936077    -34.180115    -6.448846    -2.626746    -6.947730    33.915363    -27.941534    47.302406    10.899820    -32.060177    110.651703    29.074915    -36.731697    37.941006    38.841953    -23.317921    33.916786    -37.833961    47.551918    12.025843    3.632298    -17.350731    44.828472    0.000000    0.000000    0.000000    -32.778442    -17.303059    -16.079657    3.301359    33.552765    -5.287157    20.828747    -7.737884    7.214421    0.000000    0.000000    0.000000    
30.583727    143.578247    52.687912    5.064693    2.633269    -66.012161    -0.154104    4.461357    -2.226465    -0.580038    -3.279812    -0.761189    21.533974    12.472474    21.920691    -18.584221    0.467148    19.608427    15.135455    -5.836824    -18.954039    -7.262872    -25.299564    -21.142365    47.050018    -30.992073    -27.664782    3.577237    -20.913448    -34.170349    -6.456003    -2.637749    -6.929142    33.910042    -27.932772    47.292961    10.908909    -32.030128    110.684341    29.103298    -36.715454    37.932117    38.820248    -23.336191    33.922207    -37.834515    47.557407    12.040573    3.647919    -17.350931    44.788979    0.000000    0.000000    0.000000    -32.807339    -17.289623    -16.095816    3.304350    33.560913    -5.290681    20.788208    -7.745291    7.233908    0.000000    0.000000    0.000000    
30.557739    143.564484    52.661770    5.038286    2.632673    -65.979759    -0.191170    4.453951    -2.227331    -0.539708    -3.262517    -0.760727    21.532452    12.463732    21.922413    -18.610729    0.490445    19.608789    15.118396    -5.765387    -18.905622    -7.324192    -25.336517    -21.224686    46.994621    -30.946692    -27.711182    3.582803    -20.860855    -34.176304    -6.475006    -2.632982    -6.926752    33.927879    -27.939947    47.302437    10.923155    -31.964821    110.712715    29.111282    -36.677147    37.923599    38.847160    -23.315834    33.930519    -37.845997    47.559525    12.026773    3.648556    -17.326628    44.753761    0.000000    0.000000    0.000000    -32.780254    -17.254932    -16.118711    3.269650    33.587173    -5.281661    20.841869    -7.788770    7.257391    0.000000    0.000000    0.000000    
